<?xml version="1.0" encoding="UTF-8"?>
<svg id="Ebene_1" data-name="Ebene 1" xmlns="http://www.w3.org/2000/svg" viewBox="0 0 50 50">
  <defs>
    <style>
      .cls-1 {
        fill: #d9ecd3;
        stroke-width: 0px;
      }
    </style>
  </defs>
  <path class="cls-1" d="M41.29,25.59c-.08.57-.13,1.15-.24,1.72-1.2,5.97-4.66,10.1-10.4,12.09-8.46,2.93-17.55-1.92-20.02-10.53-2.18-7.61,1.82-15.79,9.16-18.72,1.5-.6,3.05-.97,4.67-1.09.08,0,.16-.03.24-.05.65,0,1.3,0,1.95,0,.08.02.16.04.24.05.8.12,1.61.2,2.4.38,6.02,1.38,10.75,6.41,11.77,12.5.1.57.16,1.14.24,1.72v1.95ZM28.6,39.01c6.71-1.23,12.76-7.86,11.64-16.38-1.05-7.97-8.61-14.02-17.25-12.46-7.54,1.36-13.34,8.69-11.76,17.2,1.48,7.93,8.99,12.9,16.43,11.8,0-.12,0-.25,0-.38,0-3.27,0-6.55,0-9.82,0-.86.03-.88.9-.88.6,0,1.2-.02,1.8,0,.27.01.37-.09.42-.34.16-.7.34-1.4.51-2.1.04-.17.08-.35.12-.51-.05-.03-.07-.04-.09-.04-.57,0-1.14,0-1.71,0-.49,0-.98,0-1.46,0-.35-.01-.55-.25-.48-.55.06-.28.27-.36.53-.36,1.03,0,2.05,0,3.08,0,.79,0,1.19.52,1,1.29-.21.84-.42,1.67-.63,2.51-.21.84-.44,1.03-1.32,1.03-.58,0-1.15,0-1.75,0v10.02Z"/>
  <path class="cls-1" d="M19.78,25.08v2.98c.12,0,.23.02.34.02.98,0,1.95,0,2.93,0,.51,0,.64.13.64.63,0,2.82,0,5.63,0,8.45,0,.09,0,.18-.02.27-.05.23-.21.39-.43.35-.16-.03-.32-.17-.43-.31-.07-.09-.04-.25-.04-.39,0-2.56,0-5.12,0-7.69,0-.12,0-.24,0-.4-.14,0-.25,0-.35,0-.83,0-1.67,0-2.5,0-.67,0-1.06-.39-1.06-1.07,0-.9,0-1.81,0-2.71,0-.66.39-1.04,1.04-1.04.83,0,1.67,0,2.5,0,.11,0,.22,0,.37,0,0-.15,0-.27,0-.39.01-1.2-.03-2.4.04-3.6.15-2.67,2.45-5.04,5.12-5.25,1.2-.09,2.42-.06,3.63-.05.53,0,.92.4.93.94.02.99.02,1.97,0,2.96-.01.55-.42.92-.97.92-.6,0-1.2,0-1.8,0-.74,0-1.13.39-1.13,1.13,0,.59,0,1.18,0,1.77,0,.38-.28.62-.58.49-.14-.06-.3-.27-.31-.42-.03-.73-.04-1.47,0-2.19.06-.94.91-1.67,1.92-1.68.64-.01,1.28,0,1.94,0v-2.95s-.05-.03-.07-.03c-1.12,0-2.24-.07-3.35.04-2.63.26-4.44,2.32-4.46,4.97,0,1.19,0,2.38,0,3.57,0,.61-.11.72-.71.72-.95,0-1.89,0-2.84,0-.11,0-.22,0-.36,0Z"/>
</svg>