<svg width="107" height="107" viewBox="0 0 107 107" fill="none" xmlns="http://www.w3.org/2000/svg">
<g clip-path="url(#clip0_231_390)">
<mask id="mask0_231_390" style="mask-type:luminance" maskUnits="userSpaceOnUse" x="0" y="0" width="107" height="107">
<path d="M0 0H107V107H0V0Z" fill="white"/>
</mask>
<g mask="url(#mask0_231_390)">
<path fill-rule="evenodd" clip-rule="evenodd" d="M30.2609 39.5877C25.7891 36.5784 22.8489 31.4702 22.8489 25.6761C22.8489 16.8335 29.6969 9.59039 38.3789 8.96121V8.91663H68.101V8.92944C77.0466 9.28054 84.1911 16.644 84.1911 25.6761C84.1911 31.4702 81.2503 36.5778 76.7797 39.5877C81.2503 42.5971 84.1911 47.7052 84.1911 53.5C84.1911 62.756 76.6877 70.2594 67.4322 70.2594C63.35 70.2652 59.4071 68.7753 56.3488 66.0713V70.7949C56.3611 70.9599 56.3672 71.1265 56.3672 71.2948V87.0054C56.3672 93.1223 51.4067 98.0833 45.2893 98.0833H39.6083C30.3523 98.0833 22.8489 90.5799 22.8489 81.3239C22.8489 75.5297 25.7897 70.4221 30.2609 67.4122C25.7891 64.4023 22.8489 59.2947 22.8489 53.5C22.8489 47.7058 25.7897 42.5977 30.2609 39.5877ZM29.5787 25.6761C29.5787 20.1366 34.0688 15.6465 39.6083 15.6465H49.6379V35.7056H39.6083C34.0688 35.7056 29.5787 31.215 29.5787 25.6761ZM67.4322 35.7056H57.4026V15.6465H67.4322C72.9711 15.6465 77.4618 20.1366 77.4618 25.6761C77.4618 31.215 72.9711 35.7056 67.4322 35.7056ZM39.6083 63.5295C34.0688 63.5295 29.5787 59.0389 29.5787 53.5C29.5787 47.961 34.0688 43.4704 39.6083 43.4704H49.6379V63.5295H39.6083ZM39.6083 91.354C34.0688 91.354 29.5787 86.8628 29.5787 81.3239C29.5787 75.7849 34.0688 71.2948 39.6083 71.2948H49.6379V87.0054C49.6376 88.1587 49.1793 89.2646 48.3639 90.08C47.5485 90.8954 46.4426 91.3537 45.2893 91.354H39.6083ZM67.4322 63.5295C72.9711 63.5295 77.4618 59.0389 77.4618 53.5C77.4618 47.9605 72.9711 43.4704 67.4322 43.4704C61.8927 43.4704 57.4026 47.961 57.4026 53.5C57.4026 59.0389 61.8927 63.5295 67.4322 63.5295Z" fill="white"/>
</g>
</g>
<defs>
<clipPath id="clip0_231_390">
<rect width="107" height="107" fill="white"/>
</clipPath>
</defs>
</svg>
