<?xml version="1.0" encoding="UTF-8"?>
<svg id="Ebene_1" data-name="Ebene 1" xmlns="http://www.w3.org/2000/svg" viewBox="0 0 50 50">
  <defs>
    <style>
      .cls-1 {
        fill: #d9ecd3;
        stroke-width: 0px;
      }
    </style>
  </defs>
  <path class="cls-1" d="M27.81,40c-.47-.14-.58-.48-.57-.94.02-1.8.01-3.6.01-5.41,0-.78-.16-1.53-.46-2.25-.24-.56-.08-.92.5-1.06,1.61-.4,3.07-1.08,4.36-2.14.93-.77,1.57-1.71,2.07-2.8.54-1.19.56-2.41.2-3.61-.31-1.02-.82-1.98-1.6-2.74-.32-.31-.37-.62-.2-1.04.42-1.01.35-2.01-.14-2.99-.1-.21-.23-.28-.44-.16-.53.32-1.07.63-1.59.98-.26.17-.48.4-.7.61-.24.22-.5.23-.78.13-1.38-.47-2.8-.69-4.26-.66-1.21.03-2.38.22-3.52.61-.45.15-.77.09-1.12-.25-.61-.58-1.29-1.07-2.08-1.41-.26-.11-.39-.05-.5.2-.46.98-.52,1.97-.1,2.96.17.41.11.71-.2,1.01-.61.61-1.02,1.35-1.38,2.14-.61,1.36-.64,2.74-.12,4.09.52,1.33,1.36,2.45,2.56,3.3,1.01.72,2.11,1.24,3.29,1.61.65.21.72.28.71.97,0,.25,0,.5-.03.75-.11.67-.98,1.38-1.64,1.42-.82.04-1.6-.1-2.3-.55-.51-.33-1.02-.68-1.53-1.02-.22-.14-.43-.28-.69-.39.04.06.07.13.11.19.34.46.66.94,1.04,1.37.37.42.79.79,1.22,1.15.52.43,1.15.62,1.83.62.41,0,.81,0,1.22,0,.55,0,.78.23.78.78,0,1.18-.01,2.35,0,3.53,0,.47-.06.85-.57,1h-.31c-.12-.04-.25-.1-.37-.13-1.23-.32-2.41-.78-3.54-1.36-1.45-.74-2.78-1.68-3.94-2.82-.76-.75-1.44-1.58-2.09-2.43-.87-1.13-1.45-2.43-1.95-3.74-.38-.98-.56-2.04-.78-3.07-.12-.53-.14-1.09-.2-1.63,0-.54,0-1.08,0-1.62.02-.1.05-.2.06-.3.14-1.63.43-3.22,1.11-4.73.6-1.32,1.19-2.64,2.16-3.73.65-.73,1.3-1.46,2-2.14,1.3-1.26,2.83-2.18,4.48-2.9,1.36-.59,2.78-1,4.25-1.2.54-.08,1.09-.13,1.64-.19.54,0,1.08,0,1.62,0,.11.02.22.05.34.06,2.25.13,4.38.73,6.4,1.72,1.47.72,2.82,1.66,3.99,2.8.78.76,1.48,1.61,2.14,2.47.84,1.1,1.41,2.38,1.89,3.67.35.94.52,1.94.74,2.93.11.5.13,1.03.2,1.54v1.62c-.02.1-.05.2-.06.3-.13,1.6-.4,3.16-1.04,4.65-.59,1.37-1.17,2.73-2.15,3.87-.66.77-1.31,1.56-2.05,2.25-.72.68-1.53,1.27-2.35,1.84-1.16.81-2.44,1.38-3.78,1.81-.48.16-.96.31-1.45.46h-.31ZM28.62,38.44c.08-.01.12-.01.16-.02,2-.6,3.8-1.58,5.4-2.91.65-.54,1.26-1.15,1.83-1.78.87-.95,1.53-2.05,2.11-3.19.9-1.77,1.37-3.68,1.47-5.67.14-2.76-.35-5.37-1.75-7.79-.62-1.06-1.29-2.08-2.15-2.97-1.21-1.26-2.57-2.29-4.12-3.09-1.94-1-4-1.55-6.18-1.68-2.93-.17-5.68.46-8.27,1.83-1.55.82-2.93,1.89-4.06,3.22-.79.93-1.5,1.95-2.09,3.01-1.08,1.97-1.57,4.12-1.58,6.36-.02,2.7.53,5.26,1.96,7.59.59.96,1.2,1.88,1.97,2.71,1.36,1.47,2.93,2.64,4.74,3.49.74.35,1.51.62,2.3.95v-2.5s-.06-.02-.08-.02c-.11,0-.23,0-.34,0-1.38.04-2.56-.47-3.5-1.44-.69-.71-1.29-1.52-1.92-2.28-.32-.39-.59-.81-.95-1.16-.22-.21-.53-.35-.82-.45-.38-.12-.64-.37-.6-.72.04-.37.32-.6.75-.6,1.49.01,2.85.41,4.07,1.29.41.3.84.57,1.26.86.49.34,1.02.57,1.63.51.16-.02.36-.12.46-.25.18-.21.1-.39-.17-.49-.22-.08-.45-.17-.67-.26-1.75-.66-3.25-1.71-4.39-3.18-1.54-1.99-1.94-4.25-1.2-6.67.3-.98.74-1.9,1.49-2.63.15-.14.18-.28.12-.49-.44-1.59-.16-3.05.83-4.37.22-.3.5-.38.85-.28,1.12.32,2.1.89,2.98,1.64.17.15.3.19.52.12,1.12-.33,2.27-.51,3.44-.54,1.45-.03,2.86.15,4.26.55.11.03.26,0,.36-.07.41-.28.78-.63,1.21-.86.6-.32,1.24-.59,1.87-.84.34-.14.62-.01.84.28.85,1.12,1.19,2.38.95,3.76-.1.57-.26,1.08.35,1.46,2.04,2.76,2,6.58-.29,9.16-.89,1.01-1.91,1.82-3.08,2.45-.33.18-.67.33-1.02.47-.42.17-.85.33-1.27.49.09.43.21.85.24,1.27.05.84.06,1.68.06,2.53,0,1.05,0,2.1,0,3.19Z"/>
</svg>