<svg width="102" height="102" viewBox="0 0 102 102" fill="none" xmlns="http://www.w3.org/2000/svg">
<g clip-path="url(#clip0_231_435)">
<path fill-rule="evenodd" clip-rule="evenodd" d="M51 0C79.1673 0 102 23.4086 102 52.2899C102 75.3878 87.4038 94.9822 67.1517 101.903C64.566 102.418 63.648 100.785 63.648 99.3927C63.648 97.6689 63.7092 92.0387 63.7092 85.0415C63.7092 80.1659 62.0772 76.9838 60.2463 75.362C71.604 74.0666 83.538 69.6444 83.538 49.5606C83.538 43.8486 81.5592 39.1875 78.285 35.5257C78.8154 34.2048 80.5647 28.8862 77.7852 21.685C77.7852 21.685 73.5114 20.2838 63.7755 27.0464C59.7006 25.8887 55.335 25.3062 51 25.2858C46.665 25.3062 42.3045 25.8887 38.2347 27.0464C28.4886 20.2838 24.2046 21.685 24.2046 21.685C21.4353 28.8862 23.1846 34.2048 23.7099 35.5257C20.451 39.1875 18.4569 43.8486 18.4569 49.5606C18.4569 69.5934 30.3654 74.0834 41.6925 75.4043C40.2339 76.7099 38.913 79.0131 38.454 82.3944C35.547 83.7306 28.1622 86.0431 23.613 78.0514C23.613 78.0514 20.9151 73.0273 15.7947 72.66C15.7947 72.66 10.8222 72.594 15.4479 75.8376C15.4479 75.8376 18.7884 77.4441 21.1089 83.4876C21.1089 83.4876 24.1026 92.8204 38.2908 89.6584C38.3163 94.0291 38.3622 98.1483 38.3622 99.3927C38.3622 100.775 37.4238 102.392 34.8789 101.908C14.6115 94.9974 0 75.3929 0 52.2899C0 23.4086 22.8378 0 51 0Z" fill="white"/>
</g>
<defs>
<clipPath id="clip0_231_435">
<rect width="102" height="102" fill="white"/>
</clipPath>
</defs>
</svg>
