<svg width="122" height="122" viewBox="0 0 122 122" fill="none" xmlns="http://www.w3.org/2000/svg">
<path d="M95.5546 10.0471H25.7276C17.4638 10.0471 10.7646 16.7463 10.7646 25.0101V94.8371C10.7646 103.101 17.4638 109.8 25.7276 109.8H95.5546C103.818 109.8 110.518 103.101 110.518 94.8371V25.0101C110.518 16.7463 103.818 10.0471 95.5546 10.0471Z" fill="white"/>
<path d="M59.3554 74.7109H42.8133L39.4477 85.4343C39.3543 85.8327 38.9875 86.1148 38.5883 86.095H30.2098C29.7319 86.095 29.5649 85.8258 29.7085 85.2871L44.0307 42.9813C44.174 42.5406 44.3174 42.0389 44.4603 41.4758C44.6479 40.4956 44.7436 39.4997 44.747 38.5013C44.7059 38.2062 44.9651 37.9455 45.248 37.9869H56.6344C56.968 37.9869 57.1586 38.1093 57.2071 38.3541L73.4632 85.3607C73.6061 85.8506 73.4632 86.0954 73.0335 86.095H63.7238C63.3974 86.1323 63.0855 85.9086 63.0078 85.5811L59.3554 74.7109ZM45.3914 65.4564H56.7061C54.8471 59.104 52.7491 52.8351 51.0487 46.4335C49.2141 52.8462 47.2126 59.2329 45.3914 65.4564Z" fill="black"/>
<path d="M83.1296 45.7721C82.3991 45.8022 81.6709 45.6738 80.9919 45.3954C80.3133 45.1171 79.6995 44.6947 79.1909 44.1564C78.6838 43.5944 78.2896 42.9356 78.0315 42.217C77.7734 41.4987 77.6564 40.735 77.6869 39.9699C77.6609 39.2123 77.7909 38.4578 78.0685 37.7554C78.3464 37.053 78.7654 36.4185 79.2984 35.8935C79.8261 35.3739 80.449 34.9668 81.1315 34.6957C81.8135 34.4247 82.5413 34.2951 83.2726 34.3144C84.9916 34.3144 86.3401 34.8408 87.3188 35.8935C87.8129 36.4406 88.1968 37.0822 88.4488 37.7817C88.7004 38.4811 88.8156 39.2249 88.7866 39.9699C88.8167 40.7377 88.6958 41.5044 88.4313 42.2234C88.1671 42.9425 87.7641 43.5998 87.2471 44.1564C86.7069 44.7027 86.0618 45.1282 85.3534 45.4065C84.6447 45.6844 83.8875 45.8091 83.1296 45.7721ZM78.1882 85.3604V50.2526C78.1882 49.8118 78.3785 49.5915 78.7612 49.5915H87.5696C87.9509 49.5915 88.1419 49.8118 88.1423 50.2526V85.3604C88.1423 85.8506 87.9513 86.0954 87.5696 86.095H78.8329C78.4032 86.095 78.1882 85.8503 78.1882 85.3604Z" fill="black"/>
</svg>
