<?xml version="1.0" encoding="UTF-8"?>
<svg id="Ebene_1" data-name="Ebene 1" xmlns="http://www.w3.org/2000/svg" viewBox="0 0 50 50">
  <defs>
    <style>
      .cls-1 {
        fill: #d9ecd3;
        stroke-width: 0px;
      }
    </style>
  </defs>
  <path class="cls-1" d="M24.03,40.86c-.61-.08-1.23-.13-1.84-.25-5.03-.97-8.8-3.71-11.26-8.19-1.39-2.52-2.02-5.26-1.84-8.12.37-5.97,3.2-10.44,8.41-13.36,2.51-1.41,5.25-2,8.12-1.85,4.48.22,8.25,2.02,11.24,5.37,2.27,2.54,3.54,5.53,3.92,8.91.03.22.05.45.08.67v1.86c-.02.09-.05.18-.05.27-.15,2.22-.74,4.32-1.81,6.26-2.47,4.48-6.23,7.22-11.26,8.19-.61.12-1.23.17-1.84.25h-1.86ZM39.8,24.97c.02-8.17-6.61-14.83-14.81-14.86-8.18-.03-14.85,6.62-14.87,14.82-.02,8.17,6.61,14.83,14.8,14.86,8.17.03,14.85-6.63,14.88-14.83Z"/>
  <path class="cls-1" d="M24.97,15.41c2.21,0,4.43,0,6.64,0,.67,0,1.29.14,1.83.55.74.58,1.05,1.36,1.05,2.28,0,4.48,0,8.96,0,13.44,0,1.4-.74,2.38-2.04,2.72-.27.07-.55.09-.83.09-4.45,0-8.9,0-13.35,0-1.43,0-2.42-.72-2.77-2.02-.07-.27-.1-.57-.1-.86,0-4.45,0-8.9,0-13.35,0-1.42.72-2.41,2.02-2.76.28-.08.59-.09.89-.09,2.21,0,4.43,0,6.64,0ZM24.96,33.44c2.24,0,4.47,0,6.71,0,1.12,0,1.77-.63,1.77-1.74,0-4.49,0-8.99,0-13.48,0-1.1-.64-1.74-1.74-1.74-4.49,0-8.98,0-13.48,0-1.1,0-1.74.64-1.74,1.74,0,4.49,0,8.99,0,13.48,0,.29.06.61.18.87.32.66.91.88,1.61.88,2.23,0,4.45,0,6.68,0Z"/>
  <path class="cls-1" d="M30.25,24.98c-.02,2.93-2.39,5.28-5.31,5.26-2.94-.02-5.31-2.41-5.27-5.34.04-2.94,2.42-5.29,5.33-5.25,2.94.04,5.28,2.41,5.26,5.32ZM24.94,20.72c-2.35.01-4.23,1.91-4.22,4.26.02,2.34,1.9,4.21,4.23,4.21,2.34,0,4.24-1.9,4.23-4.24,0-2.35-1.9-4.24-4.25-4.23Z"/>
  <path class="cls-1" d="M32.37,19.13c0,.87-.71,1.58-1.58,1.59-.87,0-1.61-.74-1.59-1.61.02-.88.73-1.57,1.6-1.56.88,0,1.57.71,1.57,1.59ZM31.3,19.11c0-.3-.24-.52-.54-.51-.28.01-.5.25-.5.53,0,.28.24.51.52.51.29,0,.53-.24.52-.53Z"/>
</svg>