<svg width="108" height="108" viewBox="0 0 108 108" fill="none" xmlns="http://www.w3.org/2000/svg">
<path d="M101.338 51.0941C101.061 51.0739 100.74 51.0604 100.416 51.0604C98.7828 51.0604 97.2202 51.3641 95.7825 51.9176L95.8702 51.8872C95.4483 52.056 94.7733 52.056 94.716 52.5926C94.9488 52.8154 94.9826 53.1832 95.1783 53.4937C95.5732 54.162 96.0592 54.729 96.6262 55.2015L96.6363 55.2116C97.227 55.674 97.8176 56.1229 98.4386 56.5177C99.5355 57.1927 100.781 57.5944 101.854 58.2727C102.465 58.6676 103.089 59.1705 103.71 59.5924C104.017 59.8016 104.217 60.183 104.611 60.318V60.2336C104.419 59.9805 104.358 59.6126 104.169 59.3325C103.886 59.049 103.606 58.7959 103.326 58.5191C102.489 57.4222 101.52 56.484 100.433 55.701L100.393 55.674C99.4916 55.0597 97.5172 54.1991 97.146 53.163L97.092 53.1022C97.8277 52.9976 98.4825 52.8424 99.1136 52.6331L99.0326 52.6567C99.9911 52.4036 100.869 52.4576 101.857 52.2112C102.303 52.0965 102.755 51.9581 103.207 51.8164V51.5632C102.701 51.057 102.323 50.3685 101.8 49.896C100.42 48.681 98.8976 47.5402 97.2945 46.5142L97.1426 46.4231C96.2583 45.8595 95.1345 45.495 94.203 45.0157C93.8655 44.847 93.3018 44.7626 93.1061 44.4791C92.6673 43.8547 92.2792 43.1392 91.9721 42.3832L91.9451 42.309C91.1171 40.7025 90.3476 39.0679 89.6366 37.4051C89.1506 36.1125 88.668 35.0527 88.1246 34.0267L88.2022 34.1854C85.5495 29.7337 81.8538 26.1562 77.4427 23.7161L77.2976 23.6419C76.2547 23.1255 75.0431 22.7239 73.7707 22.4977L73.6863 22.4842C72.981 22.4505 72.279 22.3999 71.577 22.3695C71.0842 22.0522 70.659 21.7282 70.2607 21.3705L70.2708 21.3806C68.6677 20.3681 64.5198 18.1744 63.3386 21.0769C62.5792 22.9061 64.4658 24.7117 65.1172 25.6399C65.637 26.2575 66.1095 26.9494 66.5178 27.6817L66.5516 27.7492C66.7507 28.2386 66.8047 28.7415 67.0038 29.2511C67.4932 30.7766 67.9893 32.0287 68.553 33.2404L68.4652 33.0311C68.7993 33.7027 69.147 34.2731 69.5351 34.8131L69.5081 34.7726C69.7342 35.0797 70.1223 35.2249 70.2135 35.7311C69.9232 36.342 69.6971 37.0507 69.5722 37.7899L69.5655 37.8371C69.201 38.9576 68.9883 40.2502 68.9883 41.5901C68.9883 43.686 69.5047 45.6604 70.416 47.3951L70.3822 47.3276C70.8345 48.0262 71.9077 49.5787 73.3455 48.9847C74.6111 48.4785 74.331 46.8754 74.6955 45.4646C74.7798 45.1271 74.7258 44.9044 74.898 44.6749V44.739C75.2928 45.5321 75.6911 46.2881 76.0522 47.0812C77.0715 48.5494 78.2831 49.7981 79.6668 50.8275L79.7107 50.8579C80.3857 51.3641 80.9223 52.2416 81.7661 52.5521V52.4677H81.702C81.5096 52.2585 81.297 52.0729 81.0641 51.9142L81.0506 51.9075C80.5275 51.3945 80.0415 50.841 79.6027 50.2571L79.5757 50.22C78.4755 48.735 77.4292 47.0542 76.5213 45.2891L76.4235 45.0832C75.9611 44.199 75.573 43.2439 75.2017 42.3697C75.033 42.0322 75.033 41.526 74.7495 41.3572C74.25 41.9175 73.8011 42.5419 73.4265 43.2135L73.3995 43.2675C72.9675 44.5264 72.684 45.981 72.6097 47.4896V47.5267C72.495 47.5571 72.5523 47.5267 72.495 47.5875C71.5938 47.3681 71.2833 46.4332 70.9458 45.6469C70.4868 44.4116 70.2202 42.9806 70.2202 41.4922C70.2202 40.2907 70.3923 39.1297 70.7163 38.0329L70.6961 38.1206C70.8952 37.53 71.739 35.667 71.4015 35.1C71.226 34.5634 70.6691 34.2562 70.3586 33.8209C69.9907 33.3011 69.6532 32.7105 69.3731 32.0861L69.3461 32.0186C68.6711 30.4425 68.3336 28.6942 67.6012 27.1181C67.1591 26.2946 66.6933 25.5859 66.1702 24.9244L66.1938 24.9547C65.637 24.3101 65.124 23.5912 64.6785 22.8285L64.6413 22.761C64.503 22.4539 64.3038 21.9442 64.5266 21.6067C64.5671 21.411 64.7223 21.2591 64.9215 21.2287C65.2927 20.925 66.339 21.3199 66.7035 21.4886C67.7733 21.8936 68.6947 22.3695 69.5486 22.9297L69.4946 22.896C69.8895 23.1727 70.3181 23.7094 70.8243 23.8477H71.415C72.3161 24.0469 73.3353 23.9085 74.1791 24.1549C75.7282 24.678 77.0681 25.3327 78.3067 26.136L78.2358 26.0921C81.9618 28.4985 84.9453 31.752 86.9636 35.5961L87.0311 35.7345C87.3686 36.3825 87.5171 36.9799 87.8242 37.6549C88.4148 39.0454 89.1438 40.4527 89.7446 41.796C90.315 43.2405 90.99 44.4892 91.7932 45.6401L91.7527 45.5794C92.1746 46.17 93.8688 46.4771 94.6282 46.7842C95.4281 47.0644 96.0693 47.331 96.6903 47.6314L96.5655 47.5774C97.5341 48.168 98.4791 48.843 99.3903 49.491C99.8527 49.8116 101.26 50.517 101.344 51.084L101.338 51.0941ZM61.7692 75.7755C61.7692 75.8261 61.7726 75.8835 61.7726 75.9409C61.7726 77.8241 60.9322 79.5082 59.6025 80.6422L59.5923 80.649C58.1343 81.837 56.2545 82.5592 54.2058 82.5592C54.0472 82.5592 53.8886 82.5559 53.7333 82.5457H53.7536C51.2595 82.512 48.9645 81.702 47.0846 80.3486L47.1183 80.3722L48.1173 78.3641C49.5652 79.1741 51.2865 79.677 53.1157 79.7479H53.136C53.2271 79.7546 53.3317 79.758 53.4397 79.758C54.5602 79.758 55.6031 79.407 56.457 78.8096L56.4401 78.8197C57.213 78.2325 57.7057 77.3145 57.7057 76.2817C57.7057 76.2615 57.7057 76.2446 57.7057 76.2244V76.2277C57.7057 74.8372 56.7371 73.656 54.972 72.6637C53.3351 71.766 50.0681 69.8929 50.0681 69.8929C48.4548 68.8939 47.3985 67.1355 47.3985 65.1307C47.3985 65.0599 47.3985 64.989 47.4018 64.9181V64.9282C47.3985 64.8641 47.3985 64.7899 47.3985 64.7156C47.3985 62.9775 48.1646 61.4182 49.3762 60.3585L49.383 60.3517C50.6722 59.2582 52.3563 58.5934 54.1957 58.5934C54.3138 58.5934 54.4286 58.5967 54.5433 58.6001H54.5265C54.5568 58.6001 54.594 58.6001 54.6311 58.6001C56.7877 58.6001 58.7958 59.2447 60.4698 60.3551L60.4293 60.3315L59.5316 62.3396C58.212 61.7456 56.673 61.3879 55.053 61.371H55.0462C54.9652 61.3642 54.8741 61.3609 54.7796 61.3609C53.8346 61.3609 52.9638 61.6916 52.2821 62.2451L52.2888 62.2384C51.651 62.7682 51.246 63.5614 51.2426 64.449C51.2426 65.8327 52.2281 67.0207 54.0506 68.0332C55.7077 68.9411 59.0557 70.8581 59.0557 70.8581C60.7027 71.8267 61.7928 73.5885 61.7928 75.6067C61.7928 75.6675 61.7928 75.7316 61.7895 75.7924V75.7822L61.7692 75.7755ZM68.7622 77.5676C67.8408 75.7282 67.3042 73.5615 67.3042 71.2699C67.3042 70.9087 67.3177 70.551 67.3447 70.2L67.3413 70.2472C67.3413 64.3725 69.1267 61.434 72.6975 61.4317C72.7852 61.425 72.8898 61.4216 72.9978 61.4216C74.601 61.4216 76.0083 62.2586 76.8082 63.5209L76.8183 63.5377C77.733 65.367 78.2696 67.527 78.2696 69.8085C78.2696 70.1595 78.2561 70.5071 78.2325 70.8514L78.2358 70.8041C78.2358 76.7261 76.4505 79.6894 72.8797 79.6939C72.7886 79.7006 72.684 79.704 72.5793 79.704C70.9762 79.704 69.5655 78.867 68.7656 77.6047L68.7555 77.5879L68.7622 77.5676ZM82.647 82.8056L78.3607 80.6962C78.7522 80.3689 79.1032 80.0246 79.4272 79.6534L79.4373 79.6432C81.1687 77.3077 82.2082 74.3681 82.2082 71.1889C82.2082 70.821 82.1947 70.4565 82.1677 70.0954L82.1711 70.1426C82.1711 62.4251 79.1415 58.5641 73.0822 58.5596C72.9472 58.5529 72.7886 58.5495 72.63 58.5495C70.0413 58.5495 67.716 59.6869 66.1331 61.4925L66.1263 61.5026C64.4017 63.8381 63.3656 66.7744 63.3656 69.9536C63.3656 70.3114 63.3791 70.6657 63.4061 71.0167L63.4027 70.9695C63.3723 71.3104 63.3555 71.7086 63.3555 72.1102C63.3555 75.06 64.2802 77.7937 65.853 80.0381L65.8226 79.9942C67.338 81.6075 69.4878 82.6132 71.8672 82.6132C72.09 82.6132 72.3093 82.6031 72.5253 82.5862L72.495 82.5896C72.5253 82.5896 72.5658 82.5896 72.603 82.5896C73.6526 82.5896 74.6685 82.4377 75.6303 82.1576L75.5561 82.1779L81.1451 85.4347L82.6638 82.8124L82.647 82.8056ZM96.6465 82.2352H85.5528V58.914H89.2856V79.3699H96.6465V82.2352ZM44.6681 65.0295C43.6995 72.063 41.4821 78.4114 38.2387 84.0982L38.3737 83.8384C37.0743 86.3392 34.6173 88.0807 31.7317 88.3609L31.698 88.3642C30.8238 88.317 30.0105 88.1077 29.2713 87.7669L29.3118 87.7837V85.7014C29.7742 85.7722 30.3075 85.8127 30.8508 85.8127C30.8812 85.8127 30.9116 85.8127 30.9453 85.8127C30.9993 85.8161 31.0567 85.8161 31.1175 85.8161C32.0928 85.8161 32.9872 85.4617 33.6757 84.8711L33.669 84.8745C34.4115 84.2636 34.8873 83.3524 34.9143 82.3264C34.7355 80.8481 34.3946 79.4981 33.9052 78.2257L33.9457 78.3405L29.6696 65.0295H33.507L36.5748 74.9824C37.1216 76.3864 37.4388 78.0131 37.4388 79.7107C37.4388 79.7141 37.4388 79.7175 37.4388 79.7175C39.0656 75.4582 40.3008 70.4902 40.9286 65.3366L40.959 65.0261L44.6681 65.0295ZM27.7256 82.2352H23.8173C23.7071 76.023 23.328 69.8231 22.68 63.6356H22.6462L16.6995 82.2352H13.7261L7.81985 63.6356H7.77935C7.3181 69.8254 7.0436 76.0252 6.95585 82.2352H3.39185C3.6236 73.944 4.1996 66.1691 5.11985 58.9106H9.96972L15.5992 76.0522H15.633L21.3131 58.9106H25.9301C26.9516 67.4089 27.5535 75.1837 27.7357 82.2352H27.7256ZM72.5793 26.5916C72.5726 26.5916 72.5625 26.5916 72.5523 26.5916C72.1507 26.5916 71.7626 26.6422 71.3913 26.7367L71.4251 26.73V26.784H71.4825C71.7727 27.216 72.0697 27.5906 72.3903 27.9416L72.3836 27.9349C72.6097 28.3871 72.8055 28.836 73.0316 29.2849L73.089 29.2207C73.4568 28.9305 73.6897 28.485 73.6897 27.9855C73.6897 27.9247 73.6863 27.8674 73.6796 27.8066V27.8134C73.5108 27.6142 73.4872 27.4185 73.3421 27.2227C73.1733 26.9392 72.8122 26.8009 72.5827 26.5781L72.5793 26.5916Z" fill="white"/>
</svg>
