<svg width="122" height="123" viewBox="0 0 122 123" fill="none" xmlns="http://www.w3.org/2000/svg">
<path d="M95.5546 10.0702H25.7276C17.4638 10.0702 10.7646 16.7847 10.7646 25.0676V95.0553C10.7646 103.338 17.4638 110.053 25.7276 110.053H95.5546C103.818 110.053 110.518 103.338 110.518 95.0553V25.0676C110.518 16.7847 103.818 10.0702 95.5546 10.0702Z" fill="white"/>
<path d="M30.5 86.5466V39.2193C30.5 38.8976 30.6334 38.7135 30.9448 38.7135C35.5413 38.7135 40.1357 38.4375 44.7332 38.4375C52.1939 38.4375 60.2718 41.0094 63.1034 48.8779C63.7705 50.8098 64.1262 52.7874 64.1262 54.8572C64.1262 58.8128 63.2368 62.0781 61.4575 64.6538C56.4875 71.8485 47.8736 71.7367 40.1521 71.7367V86.5009C40.2123 86.9379 39.8429 87.1447 39.4849 87.1447H31.0338C30.6779 87.1447 30.5 86.9606 30.5 86.5466ZM40.1963 47.5902V63.044C43.2581 63.27 46.4618 63.2946 49.4035 62.3083C52.6514 61.3635 54.4299 58.5296 54.4299 55.1332C54.5199 52.2393 52.956 49.4625 50.2934 48.4182C47.3871 47.1997 43.3336 47.1267 40.1963 47.5902Z" fill="black"/>
<path d="M91.8686 59.9909C90.5228 59.2756 89.0893 58.7525 87.6073 58.4358C85.7034 57.9841 78.1935 56.402 78.1905 60.3611C78.2572 62.5712 81.7372 63.654 83.2748 64.2856C88.6729 66.154 94.7813 69.4938 94.6612 76.2077C94.8263 84.5656 86.7941 87.9069 79.9091 87.9077C76.325 87.945 72.591 87.3853 69.3108 85.834C68.9974 85.6668 68.7961 85.3097 68.8094 84.9453V76.948C68.774 76.6275 69.1156 76.3472 69.3824 76.5779C72.5964 78.5374 76.4058 79.4891 80.1242 79.5399C81.7654 79.5399 85.0183 79.3796 84.9939 76.948C84.9939 74.6149 81.1025 73.5421 79.5512 72.9494C77.3025 72.1403 75.1706 71.019 73.2136 69.6172C70.4785 67.6504 68.7629 64.497 68.8094 61.0276C68.7934 53.1579 76.187 49.6255 82.8455 49.624C85.9581 49.5978 89.3009 49.8304 92.1984 51.105C92.6151 51.2283 92.7012 51.6711 92.6997 52.0674V59.5466C92.726 60.0109 92.2148 60.1689 91.8686 59.9909Z" fill="black"/>
</svg>
