<svg width="108" height="108" viewBox="0 0 108 108" fill="none" xmlns="http://www.w3.org/2000/svg">
<path d="M78.3168 46.4366H74.3411L72.1642 57.6045H75.6978C75.8868 57.618 76.1096 57.6281 76.3323 57.6281C78.0434 57.6281 79.633 57.1252 80.9696 56.2612L80.9358 56.2815C82.1879 55.1677 83.0384 53.6287 83.2578 51.8906L83.2612 51.8569C83.4232 51.3911 83.5177 50.8579 83.5177 50.301C83.5177 49.3189 83.2241 48.4042 82.7212 47.6415L82.7313 47.6584C81.7289 46.8686 80.4498 46.3894 79.0559 46.3894C78.7961 46.3894 78.5362 46.4062 78.2831 46.44L78.3168 46.4366ZM89.2619 52.2652C89.0088 53.6085 88.5599 54.8066 87.9457 55.8967L87.9761 55.8394C87.3213 56.9801 86.5349 57.9589 85.6203 58.7959L85.6102 58.8026C84.5437 59.8219 83.2511 60.6184 81.8133 61.1044L81.7424 61.1246C80.2541 61.5667 78.5463 61.8232 76.7744 61.8232C76.6124 61.8232 76.4538 61.8199 76.2952 61.8165H76.3188H71.3407L69.9603 68.9107H64.1486L69.3359 42.2314H80.5072C80.7536 42.2077 81.0438 42.1942 81.3341 42.1942C83.8788 42.1942 86.1873 43.2202 87.8613 44.8807C88.9379 46.2645 89.5893 48.0296 89.5893 49.9432C89.5893 50.7701 89.4678 51.57 89.2417 52.3226L89.2552 52.2652H89.2619ZM57.2231 61.8199L59.5147 50.0141C59.6328 49.6935 59.7003 49.3256 59.7003 48.9409C59.7003 48.3232 59.5248 47.7461 59.2211 47.2567L59.2278 47.2702C58.5697 46.791 57.7462 46.5007 56.8552 46.5007C56.6696 46.5007 56.4873 46.5142 56.3084 46.5379L56.3287 46.5345H51.7218L48.7518 61.8232H42.9839L48.1713 35.1405H53.9358L52.5554 42.2347H57.6922C58.0061 42.201 58.3672 42.1807 58.7351 42.1807C60.8444 42.1807 62.8019 42.8321 64.4152 43.9492L64.3814 43.929C65.2488 44.9111 65.7787 46.2105 65.7787 47.6314C65.7787 48.2659 65.674 48.8767 65.4783 49.4471L65.4884 49.4066L63.0753 61.8232L57.2231 61.8199ZM40.2502 58.8026C39.1837 59.8252 37.8911 60.6184 36.4533 61.1044L36.3824 61.1246C34.8941 61.5667 33.1863 61.8232 31.4178 61.8232C31.2592 61.8232 31.0972 61.8199 30.9386 61.8165H30.9622H25.9807L24.6003 68.9074H18.7886L23.9759 42.228H35.1539C35.4003 42.2044 35.6906 42.1909 35.9808 42.1909C38.5256 42.1909 40.8341 43.2169 42.5081 44.8774C43.5847 46.2611 44.2327 48.0262 44.2327 49.9399C44.2327 50.7701 44.1112 51.57 43.8851 52.326L43.8986 52.2686C43.4058 54.8809 42.0997 57.132 40.2569 58.7959L40.2468 58.806L40.2502 58.8026ZM53.9999 27.378C26.0516 27.378 3.38843 39.2951 3.38843 54C3.38843 68.7049 26.0482 80.6254 53.9999 80.6254C81.9517 80.6254 104.611 68.7015 104.611 54C104.611 39.2985 81.9517 27.378 53.9999 27.378ZM32.9534 46.4366H28.9709L26.7974 57.6045H30.3311C30.5201 57.618 30.7394 57.6281 30.9622 57.6281C32.6733 57.6281 34.2663 57.1252 35.6028 56.2612L35.5691 56.2815C36.8212 55.1711 37.6683 53.6287 37.8843 51.8906L37.8877 51.8569C38.0531 51.3911 38.1476 50.8545 38.1476 50.2976C38.1476 49.3189 37.8573 48.4042 37.3544 47.6449L37.3646 47.6617C36.3622 46.872 35.0831 46.3927 33.6892 46.3927C33.4293 46.3927 33.1694 46.4096 32.9163 46.4434L32.9467 46.44L32.9534 46.4366Z" fill="white"/>
</svg>
