<svg width="99" height="100" viewBox="0 0 99 100" fill="none" xmlns="http://www.w3.org/2000/svg">
<g clip-path="url(#clip0_231_383)">
<path d="M84.15 0H14.85C6.64857 0 0 6.71573 0 15V85C0 93.2843 6.64857 100 14.85 100H84.15C92.3514 100 99 93.2843 99 85V15C99 6.71573 92.3514 0 84.15 0Z" fill="white"/>
<path d="M45.0527 55.4687H57.4277V47.4609H22.8164V55.4687H35.1914V91.2109H45.0527V55.4687ZM61.2949 89.2578C62.8611 90.0781 64.7754 90.6836 66.9023 91.0937C69.0293 91.5039 71.3496 91.6992 73.6699 91.6992C75.9902 91.6992 78.1172 91.4844 80.2441 91.0351C82.3711 90.5859 84.1113 89.8437 85.6582 88.8867C87.2244 87.8516 88.5586 86.543 89.332 84.7852C90.1055 83.0273 90.7049 81.0742 90.7049 78.5352C90.7049 76.7578 90.4342 75.2148 89.9121 73.8477C89.39 72.4805 88.6359 71.3086 87.5918 70.332C86.6057 69.2969 85.4648 68.3789 84.1113 67.5977C82.7578 66.8164 81.2109 65.9961 79.4707 65.2539C78.1945 64.7266 77.1504 64.2188 75.9902 63.7109C74.9848 63.2031 74.1146 62.6953 73.4766 62.1875C72.7611 61.6602 72.2197 61.1133 71.833 60.5469C71.4463 59.9609 71.2529 59.3164 71.2529 58.5937C71.2529 57.9297 71.425 57.3242 71.775 56.7773C72.125 56.2305 72.6064 55.7812 73.2252 55.3906C73.8439 55 74.6174 54.707 75.5455 54.4922C76.4543 54.2773 77.4598 54.1797 78.6393 54.1797C79.4514 54.1797 80.3021 54.2402 81.1529 54.3633C82.0424 54.4863 82.9512 54.6758 83.86 54.9297C84.7687 55.1836 85.6582 55.4961 86.567 55.8867C87.4178 56.2773 88.2105 56.7266 88.8873 57.2344V48.0547C87.4178 47.4883 85.7936 47.0586 84.0533 46.7852C82.3131 46.5117 80.3795 46.375 78.0592 46.375C75.7389 46.375 73.6119 46.6289 71.485 47.1172C69.358 47.6055 67.6178 48.3867 66.0709 49.4609C64.5047 50.5156 63.3639 51.8047 62.3971 53.5625C61.4883 55.2031 61.0436 57.0781 61.0436 59.4219C61.0436 62.3516 61.875 64.8906 63.5572 66.8437C65.2201 68.9922 67.8111 70.5547 71.0982 72.1172C72.4324 72.6641 73.6119 73.2109 74.7721 73.7383C75.9322 74.2656 76.899 74.8125 77.6725 75.3789C78.5039 75.9453 79.1613 76.5703 79.6061 77.2344C80.0895 77.8984 80.3408 78.6797 80.3408 79.5781C80.3408 80.2031 80.19 80.7891 79.8961 81.3359C79.6022 81.8828 79.142 82.3516 78.5232 82.7422C77.9045 83.1328 77.1504 83.4453 76.2029 83.6797C75.2941 83.8945 74.2693 84.0117 72.9158 84.0117C70.7889 84.0117 68.6619 83.6406 66.7283 82.8984C64.6014 82.1562 62.6678 81.043 61.2949 79.8828V89.2578Z" fill="black"/>
</g>
<defs>
<clipPath id="clip0_231_383">
<rect width="99" height="100" fill="white"/>
</clipPath>
</defs>
</svg>
