<svg width="102" height="102" viewBox="0 0 102 102" fill="none" xmlns="http://www.w3.org/2000/svg">
<g clip-path="url(#clip0_231_445)">
<path fill-rule="evenodd" clip-rule="evenodd" d="M95.7525 26.531C95.9718 28.1579 96.0942 29.8961 96.0942 31.7729C96.0942 40.7387 95.2629 41.2439 76.6377 95.0846C91.8 86.2412 102 69.8139 102 51C102 42.1311 99.7356 33.7934 95.7525 26.531ZM51.8976 55.4625L36.5925 99.9231C46.92 102.963 57.8646 102.653 67.9371 99.1138C67.7994 98.8945 67.677 98.659 67.575 98.4091L51.8976 55.4625ZM85.4301 48.4251C85.4301 42.1215 83.1657 37.7544 81.2226 34.3578C78.642 30.1554 76.2144 26.6021 76.2144 22.3997C76.2144 17.7128 79.7742 13.3477 84.7824 13.3477C85.0068 13.3477 85.221 13.3773 85.4403 13.3875C76.3674 5.0745 64.2804 0 51 0C33.1857 0 17.5083 9.13836 8.38952 22.9849C11.6382 23.0869 15.9987 23.1288 25.2654 22.4046C28.0143 22.2414 28.3356 26.2794 25.5918 26.6007C25.5918 26.6007 22.8276 26.9281 19.7523 27.0913L38.3265 82.3346L49.4853 48.8584L41.5395 27.0863C38.7957 26.9282 36.1947 26.6007 36.1947 26.6007C33.4458 26.4375 33.7671 22.2365 36.516 22.3997C47.0577 23.2106 52.4535 23.2718 63.5409 22.3997C66.2898 22.2365 66.6162 26.2743 63.8673 26.6007C63.8673 26.6007 61.098 26.9282 58.0278 27.0863L76.4592 81.9113C83.7369 57.5945 85.4301 53.5251 85.4301 48.4251ZM0 51C0 71.1858 11.73 88.6329 28.7436 96.9L4.41659 30.2439C1.58609 36.5883 0 43.605 0 51Z" fill="white"/>
</g>
<defs>
<clipPath id="clip0_231_445">
<rect width="102" height="102" fill="white"/>
</clipPath>
</defs>
</svg>
