<svg width="122" height="122" viewBox="0 0 122 122" fill="none" xmlns="http://www.w3.org/2000/svg">
<path d="M95.5546 10.0471H25.7276C17.4638 10.0471 10.7646 16.7463 10.7646 25.0101V94.8371C10.7646 103.101 17.4638 109.8 25.7276 109.8H95.5546C103.818 109.8 110.518 103.101 110.518 94.8371V25.0101C110.518 16.7463 103.818 10.0471 95.5546 10.0471Z" fill="white"/>
<path d="M63.4648 39.0164L50.1451 61.565L64.3954 85.5086C64.6917 86.0515 64.3954 86.1716 63.9661 86.1716H53.7974C53.0811 86.1716 52.5797 86.1457 52.2934 85.6558C51.3376 83.7461 50.383 81.8487 49.4287 79.9634C48.4733 78.0789 47.4588 76.157 46.3856 74.1977C45.3112 72.24 44.249 70.2571 43.1987 68.2487C42.2433 70.2076 41.1807 72.166 40.1552 74.1245C39.1281 76.0834 38.1136 78.0297 37.1117 79.9634C36.1092 81.8982 35.0827 83.8201 34.0325 85.729C33.8411 86.1697 33.5065 86.2151 33.0297 86.2151H23.2191C22.8336 86.2151 22.7871 85.9254 23.0043 85.5822L36.8252 62.2993L23.3622 38.9428C23.1177 38.6096 23.3282 38.2546 23.7204 38.2817H33.8175C34.2547 38.2573 34.6411 38.422 34.8917 38.796C35.751 40.7549 36.7058 42.7137 37.7561 44.6718C38.8055 46.6307 39.8681 48.5652 40.9428 50.4741C42.0172 52.3837 43.0794 54.3178 43.9863 56.2767C44.9406 54.2694 45.9075 52.3109 46.8865 50.4009C47.8648 48.4912 48.8671 46.5693 49.8942 44.6352C50.9205 42.7015 51.911 40.7796 52.866 38.8696C52.993 38.4506 53.2965 38.2382 53.7254 38.2817H63.1064C63.4648 38.2817 63.6127 38.7708 63.4648 39.0164Z" fill="black"/>
<path d="M84.0165 87.1252C77.7011 87.2239 71.086 84.6234 67.7607 78.8623C66.1374 76.0964 65.3257 72.6323 65.3261 68.4694C65.299 65.0984 66.1389 61.7797 67.7607 58.8478C71.9457 51.367 80.3767 48.564 88.3848 49.2998V34.8305C88.3848 34.4884 88.5282 34.3164 88.8145 34.3164H97.8375C98.0842 34.2802 98.3023 34.504 98.2672 34.757V78.1646C98.2672 79.9554 98.4449 81.74 98.5539 83.5262C98.5715 83.8312 98.3949 84.1331 98.1239 84.2608C93.6659 86.1678 88.842 87.103 84.0165 87.1252ZM88.3848 78.0175V57.9664C81.8441 56.1494 75.494 61.1311 75.4948 68.0287C75.3396 75.16 81.4869 80.0869 88.3848 78.0175Z" fill="black"/>
</svg>
